<?xml version="1.0" standalone="no"?><!DOCTYPE svg PUBLIC "-//W3C//DTD SVG 1.1//EN" "http://www.w3.org/Graphics/SVG/1.1/DTD/svg11.dtd"><svg t="1614226684843" class="icon" viewBox="0 0 1024 1024" version="1.1" xmlns="http://www.w3.org/2000/svg" p-id="583" xmlns:xlink="http://www.w3.org/1999/xlink" width="200" height="200"><defs><style type="text/css"></style></defs><path d="M207.347 554.456a55.14 55.14 0 0 0 4.676 4.16L595.525 944.104c21.351 21.35 55.967 21.35 77.318 0 21.35-21.35 21.35-55.966 1e-8-77.318l-349.26000001-351.247 356.76-356.422c21.35-21.351 21.35-55.967 1e-8-77.319-21.35-21.35-55.966-21.35-77.31700002 0l-390.99799999 390.661a55.19 55.19 0 0 0-4.68 4.161c-10.74 10.74-16.073 24.84-16.007 38.918-0.067 14.07999999 5.265 28.177 16.006 38.918z" p-id="584"></path></svg>