<?xml version="1.0" standalone="no"?><!DOCTYPE svg PUBLIC "-//W3C//DTD SVG 1.1//EN" "http://www.w3.org/Graphics/SVG/1.1/DTD/svg11.dtd"><svg t="1613279121662" class="icon" viewBox="0 0 1024 1024" version="1.1" xmlns="http://www.w3.org/2000/svg" p-id="3947" xmlns:xlink="http://www.w3.org/1999/xlink" width="200" height="200"><defs><style type="text/css"></style></defs><path d="M788.514133 663.278933c0-113.083733-60.347733-182.203733-209.92-235.008-106.8032-40.209067-150.801067-66.594133-150.801067-108.066133 0-35.191467 26.385067-70.417067 108.066133-70.417067 48.571733 0 87.688533 8.2944 118.647467 18.158933 16.4864 5.2224 34.440533 3.447467 49.595733-4.983467 15.121067-8.3968 26.180267-22.6304 30.481067-39.389867l0.682667-2.628267c5.3248-20.753067 2.116267-42.769067-8.9088-61.1328-11.025067-18.363733-28.945067-31.5392-49.7664-36.590933C648.4992 116.394667 615.560533 111.479467 576.8192 109.397333L576.8192 34.133333c0-18.8416-15.2576-34.133333-34.133333-34.133333L474.4192 0C455.5776 0 440.285867 15.291733 440.285867 34.133333l0 85.7088C310.647467 148.036267 235.485867 233.130667 235.485867 341.538133c0 121.924267 91.7504 184.7296 226.235733 229.9904 93.013333 31.4368 133.188267 61.610667 133.188267 109.329067 0 50.312533-49.015467 77.9264-120.6272 77.9264-51.336533 0-99.669333-10.4448-141.585067-25.326933-17.578667-6.2464-36.932267-4.846933-53.384533 3.925333-16.452267 8.738133-28.4672 23.995733-33.109333 42.052267l-0.3072 1.092267c-11.127467 43.52 14.1312 88.098133 57.173333 100.9664C343.8592 893.713067 391.611733 902.2464 440.285867 904.4992L440.285867 989.866667c0 18.875733 15.291733 34.133333 34.133333 34.133333l68.266667 0c18.875733 0 34.133333-15.2576 34.133333-34.133333l0-97.041067C713.352533 864.4608 788.514133 771.822933 788.514133 663.278933z" p-id="3948"></path></svg>