<?xml version="1.0" standalone="no"?><!DOCTYPE svg PUBLIC "-//W3C//DTD SVG 1.1//EN" "http://www.w3.org/Graphics/SVG/1.1/DTD/svg11.dtd"><svg t="1613348561215" class="icon" viewBox="0 0 1024 1024" version="1.1" xmlns="http://www.w3.org/2000/svg" p-id="8664" xmlns:xlink="http://www.w3.org/1999/xlink" width="200" height="200"><defs><style type="text/css"></style></defs><path d="M512 0C229.257143 0 0 229.257143 0 512s229.257143 512 512 512 512-229.257143 512-512S794.742857 0 512 0z m25.485714 760.228571l0.228572 36.228572c0 5.028571-4.114286 9.257143-9.142857 9.257143h-32.457143c-5.028571 0-9.142857-4.114286-9.142857-9.142857v-35.885715C385.485714 753.142857 337.714286 695.314286 332.571429 632.457143c-0.457143-5.371429 3.771429-9.942857 9.142857-9.942857h52.8c4.457143 0 8.342857 3.2 9.028571 7.542857 5.828571 36.228571 34.057143 63.314286 84.685714 70.057143V537.028571l-28.228571-7.2c-59.771429-14.285714-116.685714-51.542857-116.685714-128.8 0-83.314286 63.314286-128.114286 144.228571-136v-37.714285c0-5.028571 4.114286-9.142857 9.142857-9.142857h32.114286c5.028571 0 9.142857 4.114286 9.142857 9.142857v37.371428c78.285714 7.885714 137.028571 53.6 143.885714 124.8 0.571429 5.371429-3.657143 10.057143-9.142857 10.057143h-51.314285c-4.571429 0-8.457143-3.428571-9.028572-7.885714-4.571429-33.371429-31.314286-60.571429-74.857143-66.514286v153.485714l29.028572 6.742858c74.057143 18.285714 124.457143 53.714286 124.457143 133.028571 0 86.057143-64 134.057143-153.485715 141.828571zM414.4 395.771429c0 29.028571 17.942857 51.542857 56.571429 65.485714 5.371429 2.171429 10.742857 3.885714 17.142857 5.714286v-141.714286c-42.171429 5.371429-73.714286 29.028571-73.714286 70.514286z m133.142857 154.514285c-3.2-0.685714-6.4-1.485714-10.057143-2.514285V700.571429c48.685714-4.342857 82.285714-31.085714 82.285715-75.885715 0-35.085714-18.171429-57.942857-72.228572-74.4z" p-id="8665"></path></svg>